<svg width="25" height="25" viewBox="0 0 25 25" fill="none" xmlns="http://www.w3.org/2000/svg">
<g id="feather:shopping-cart">
<g id="Group">
<path id="Vector" d="M9.37492 22.9168C9.95022 22.9168 10.4166 22.4505 10.4166 21.8752C10.4166 21.2999 9.95022 20.8335 9.37492 20.8335C8.79962 20.8335 8.33325 21.2999 8.33325 21.8752C8.33325 22.4505 8.79962 22.9168 9.37492 22.9168Z" stroke="black" stroke-width="2" stroke-linecap="round" stroke-linejoin="round"/>
<path id="Vector_2" d="M20.8333 22.9168C21.4086 22.9168 21.875 22.4505 21.875 21.8752C21.875 21.2999 21.4086 20.8335 20.8333 20.8335C20.258 20.8335 19.7916 21.2999 19.7916 21.8752C19.7916 22.4505 20.258 22.9168 20.8333 22.9168Z" stroke="black" stroke-width="2" stroke-linecap="round" stroke-linejoin="round"/>
<path id="Vector_3" d="M1.04163 1.04175H5.20829L7.99996 14.9897C8.09521 15.4692 8.35611 15.9 8.73699 16.2066C9.11786 16.5132 9.59444 16.6761 10.0833 16.6667H20.2083C20.6971 16.6761 21.1737 16.5132 21.5546 16.2066C21.9355 15.9 22.1964 15.4692 22.2916 14.9897L23.9583 6.25008H6.24996" stroke="black" stroke-width="2" stroke-linecap="round" stroke-linejoin="round"/>
</g>
</g>
</svg>
