<svg width="20" height="19" viewBox="0 0 20 19" fill="none" xmlns="http://www.w3.org/2000/svg">
<g id="material-symbols:edit-calendar">
<path id="Vector" d="M4.57601 17.4166C4.14059 17.4166 3.76772 17.2615 3.45739 16.9511C3.14705 16.6408 2.99215 16.2682 2.99268 15.8333V4.74998C2.99268 4.31456 3.14784 3.94169 3.45818 3.63135C3.76851 3.32102 4.14112 3.16612 4.57601 3.16665H5.36768V1.58331H6.95101V3.16665H13.2843V1.58331H14.8677V3.16665H15.6593C16.0948 3.16665 16.4676 3.32181 16.778 3.63215C17.0883 3.94248 17.2432 4.31509 17.2427 4.74998V9.49998H15.6593V7.91665H4.57601V15.8333H10.1177V17.4166H4.57601ZM18.1333 13.4583L16.451 11.776L17.025 11.2021C17.1701 11.0569 17.3548 10.9844 17.5791 10.9844C17.8034 10.9844 17.9882 11.0569 18.1333 11.2021L18.7073 11.776C18.8524 11.9212 18.925 12.1059 18.925 12.3302C18.925 12.5545 18.8524 12.7392 18.7073 12.8844L18.1333 13.4583ZM11.701 18.2083V16.526L15.8968 12.3302L17.5791 14.0125L13.3833 18.2083H11.701Z" fill="white"/>
</g>
</svg>
