<svg version="1.2" xmlns="http://www.w3.org/2000/svg" viewBox="0 0 95 95" width="95" height="95"><defs><clipPath clipPathUnits="userSpaceOnUse" id="cp1"><path d="m0-22.5h95v138h-95z"/></clipPath></defs><style>.a{fill:#686b75}</style><g clip-path="url(#cp1)"><path fill-rule="evenodd" class="a" d="m22.8 8.7h39.5l15.9 15.3v53.7c0 2-0.9 4-2.4 5.4-1.4 1.4-3.5 2.2-5.6 2.2h-47.5c-2 0-4.1-0.8-5.5-2.2-1.5-1.4-2.4-3.4-2.4-5.4v-61.4c0-2 0.9-4 2.4-5.4 1.4-1.4 3.5-2.2 5.5-2.2zm36.4 7.6h-36.4v61.4h47.5v-50.5h-11.1zm-0.7 38.3c-1.1 0-2.1-0.4-2.8-1.1-0.8-0.7-1.2-1.7-1.2-2.7 0-1 0.4-2 1.2-2.7 0.7-0.8 1.7-1.2 2.8-1.2 1 0 2 0.4 2.8 1.2 0.7 0.7 1.1 1.7 1.1 2.7 0 1-0.4 2-1.1 2.7-0.8 0.7-1.8 1.1-2.8 1.1zm-27.7 7.7l12.1-11.5 11.6 11.5 4-3.9 3.9 3.9v7.6h-31.6z"/></g></svg>