<svg width="12" height="12" viewBox="0 0 12 12" fill="none" xmlns="http://www.w3.org/2000/svg">
<g clip-path="url(#clip0_4201_172)">
<path d="M5.50843 10.257C5.37663 10.2573 5.2471 10.2227 5.13298 10.1568C5.01886 10.0908 4.92422 9.99588 4.85867 9.88154L2.10867 5.1184C2.04234 5.0045 2.00734 4.87508 2.00721 4.74328C2.00708 4.61148 2.04183 4.48199 2.10793 4.36797C2.17403 4.25394 2.26913 4.15944 2.38357 4.09405C2.49801 4.02867 2.62771 3.99473 2.75951 3.99569L8.24657 3.99955C8.37838 3.99938 8.50792 4.03396 8.62212 4.09979C8.73631 4.16563 8.83114 4.2604 8.89705 4.37455C8.96296 4.48871 8.99762 4.61822 8.99753 4.75003C8.99745 4.88185 8.96262 5.01132 8.89657 5.12539L6.15639 9.87925C6.09178 9.99418 5.99766 10.0898 5.88375 10.1562C5.76984 10.2226 5.64028 10.2574 5.50843 10.257Z" fill="white"/>
</g>
<defs>
<clipPath id="clip0_4201_172">
<rect width="8" height="8" fill="white" transform="translate(7.5459 0.535889) rotate(60)"/>
</clipPath>
</defs>
</svg>
